#N canvas 0 0 824 962 10;
#X obj 205 -4 inlet;
#X obj 205 16 t b a;
#X obj 249 141 s \$0-mypitch;
#X obj 232 162 s \$0-mystart;
#X obj 205 212 f;
#X obj 205 287 t f f;
#X msg 250 315 0 \, 1 \$1 0;
#X obj 250 342 vline~;
#X obj 251 388 *~;
#X obj 205 388 / 1000;
#X obj 205 416 sig~;
#X obj 252 441 *~ 1;
#X obj 238 466 *~;
#X obj 239 509 +~;
#X obj 239 591 tabread4~ source-array;
#X obj 225 625 *~;
#X obj 226 655 throw~ bus;
#X obj 80 433 *~ 2048;
#X obj 80 459 tabread4~ grain-env;
#X obj 273 416 r \$0-mypitch;
#X obj 271 120 s \$0-gstart;
#X obj 254 486 r \$0-gstart;
#X obj 237 557 +~;
#X obj 252 534 r \$0-mystart;
#X obj 232 50 unpack f f f f f;
#X obj 301 100 s \$0-gdur;
#X obj 325 80 s \$0-gpitch;
#X obj 266 365 r \$0-gpitch;
#X obj 220 190 r \$0-gdur;
#X connect 0 0 1 0;
#X connect 1 0 4 0;
#X connect 1 1 24 0;
#X connect 4 0 5 0;
#X connect 5 0 9 0;
#X connect 5 1 6 0;
#X connect 6 0 7 0;
#X connect 7 0 8 0;
#X connect 7 0 17 0;
#X connect 8 0 11 0;
#X connect 9 0 10 0;
#X connect 10 0 12 0;
#X connect 11 0 12 1;
#X connect 12 0 13 0;
#X connect 13 0 22 0;
#X connect 14 0 15 1;
#X connect 15 0 16 0;
#X connect 17 0 18 0;
#X connect 18 0 15 0;
#X connect 19 0 11 1;
#X connect 21 0 13 1;
#X connect 22 0 14 0;
#X connect 23 0 22 1;
#X connect 24 0 3 0;
#X connect 24 1 2 0;
#X connect 24 2 20 0;
#X connect 24 3 25 0;
#X connect 24 4 26 0;
#X connect 27 0 8 1;
#X connect 28 0 4 1;
