#N canvas 955 353 450 323 10;
#X obj 96 73 receive change;
#X obj 80 269 dac~;
#X obj 270 79 s change;
#X obj 14 58 vsl 15 128 0 1 0 0 empty empty empty 0 -9 0 10 -262144
-1 -1 5650 1;
#X obj 59 231 *~;
#X obj 157 244 *~;
#X obj 90 114 route a b c;
#X obj 46 207 expr~ $v1+$v2+$v3;
#X obj 173 200 expr~ $v1+$v2+$v3;
#X msg 29 20 0.5;
#X obj 85 2 loadbang;
#X msg 307 23 b stop;
#X obj 131 164 synth;
#X obj 88 165 synth;
#X obj 177 164 synth;
#X msg 241 28 a stop;
#X msg 377 27 c stop;
#X msg 376 3 c 0.3 0.8;
#X msg 308 2 b 1 0.8;
#X msg 241 3 a 0.8 0.5;
#X connect 0 0 6 0;
#X connect 3 0 4 1;
#X connect 3 0 5 1;
#X connect 4 0 1 0;
#X connect 5 0 1 1;
#X connect 6 0 13 0;
#X connect 6 1 12 0;
#X connect 6 2 14 0;
#X connect 7 0 4 0;
#X connect 8 0 5 0;
#X connect 9 0 3 0;
#X connect 10 0 9 0;
#X connect 11 0 2 0;
#X connect 12 0 7 1;
#X connect 12 1 8 1;
#X connect 13 0 7 0;
#X connect 13 1 8 0;
#X connect 14 0 7 2;
#X connect 14 1 8 2;
#X connect 15 0 2 0;
#X connect 16 0 2 0;
#X connect 17 0 2 0;
#X connect 18 0 2 0;
#X connect 19 0 2 0;
