#N canvas -1 0 414 416 10;
#N canvas 0 0 342 418 limiter~ 0;
#X obj 86 322 *~;
#X obj 121 80 env~;
#X obj 121 102 dbtorms;
#X obj 86 57 inlet~;
#X obj 83 348 outlet~;
#X obj 230 320 *~;
#X obj 230 55 inlet~;
#X obj 227 346 outlet~;
#X msg 130 178 1 \$1;
#X obj 132 205 /;
#X obj 121 238 min 1;
#X obj 124 141 + 0.5;
#X obj 117 272 lop~ 5;
#X connect 0 0 4 0;
#X connect 1 0 2 0;
#X connect 2 0 11 0;
#X connect 3 0 1 0;
#X connect 3 0 0 0;
#X connect 5 0 7 0;
#X connect 6 0 5 0;
#X connect 6 0 1 0;
#X connect 8 0 9 0;
#X connect 9 0 10 0;
#X connect 10 0 12 0;
#X connect 11 0 8 0;
#X connect 12 0 0 1;
#X connect 12 0 5 1;
#X restore 65 135 pd limiter~;
#X obj 79 252 dac~;
#X obj 127 168 *~;
#X obj 66 168 *~;
#X obj 171 130 r vol;
#X msg 220 129 0.8;
#X obj 79 101 grain;
#X obj 57 80 velocity_synth;
#X obj 220 105 loadbang;
#X connect 0 0 3 0;
#X connect 0 1 2 0;
#X connect 2 0 1 1;
#X connect 3 0 1 0;
#X connect 4 0 3 1;
#X connect 4 0 2 1;
#X connect 5 0 3 1;
#X connect 5 0 2 1;
#X connect 6 0 0 0;
#X connect 6 1 0 1;
#X connect 7 0 0 0;
#X connect 7 1 0 1;
#X connect 8 0 5 0;
