#N canvas 493 232 522 602 10;
#X obj 221 145 inlet~;
#X obj 12 236 outlet~ l;
#X obj 79 237 outlet~ r;
#X obj 201 193 +~;
#X obj 250 193 +~;
#X obj 201 229 +~;
#X obj 296 230 +~;
#X obj 202 271 +~;
#X obj 250 269 +~;
#X obj 248 230 -~;
#X obj 345 229 -~;
#X obj 294 269 -~;
#X obj 347 270 -~;
#X obj 199 319 *~ 0.4;
#X obj 247 356 *~ 0.37;
#X obj 299 399 *~ 0.333;
#X obj 347 445 *~ 0.3;
#X obj 214 567 delwrite~ \$0-A 1000;
#X obj 255 539 delwrite~ \$0-B 1000;
#X obj 305 507 delwrite~ \$0-C 1000;
#X obj 348 473 delwrite~ \$0-D 1000;
#X obj 300 107 delread~ \$0-A 101;
#X obj 325 131 delread~ \$0-B 143;
#X obj 350 154 delread~ \$0-C 165;
#X obj 397 178 delread~ \$0-D 177;
#X connect 0 0 3 0;
#X connect 0 0 4 0;
#X connect 3 0 1 0;
#X connect 3 0 9 0;
#X connect 3 0 5 0;
#X connect 4 0 2 0;
#X connect 4 0 5 1;
#X connect 5 0 7 0;
#X connect 5 0 11 0;
#X connect 6 0 11 1;
#X connect 6 0 7 1;
#X connect 7 0 13 0;
#X connect 8 0 14 0;
#X connect 9 0 8 0;
#X connect 9 0 12 0;
#X connect 10 0 12 1;
#X connect 10 0 8 1;
#X connect 11 0 15 0;
#X connect 12 0 16 0;
#X connect 13 0 17 0;
#X connect 14 0 18 0;
#X connect 15 0 19 0;
#X connect 16 0 20 0;
#X connect 21 0 3 1;
#X connect 22 0 4 1;
#X connect 23 0 6 0;
#X connect 23 0 10 0;
#X connect 24 0 6 1;
#X connect 24 0 10 1;
