#N canvas 711 37 824 962 10;
#X obj 57 50 bng 15 250 50 0 empty empty empty 17 7 0 10 -262144 -1
-1;
#X msg 57 152 1;
#X msg 90 152 0;
#X obj 42 201 *~;
#X obj 90 129 del;
#X obj 106 285 *~ 0.99;
#X obj 148 107 mtof;
#X obj 148 130 expr 1000 / $f1;
#X floatatom 157 152 5 0 0 0 - - -;
#X obj 41 173 noise~;
#X obj 148 23 inlet midi_note;
#X obj 57 23 inlet trigger;
#X obj 41 373 delwrite~ \$0-buf 1000;
#X obj 148 174 vd~ \$0-buf 100;
#X obj 106 345 outlet~;
#X obj 105 317 *~ 0.5;
#X obj 123 227 lop~ 6000;
#X obj 138 69 f;
#X connect 0 0 1 0;
#X connect 0 0 4 0;
#X connect 0 0 17 0;
#X connect 1 0 3 1;
#X connect 2 0 3 1;
#X connect 3 0 12 0;
#X connect 4 0 2 0;
#X connect 5 0 12 0;
#X connect 5 0 15 0;
#X connect 6 0 7 0;
#X connect 7 0 4 1;
#X connect 7 0 8 0;
#X connect 7 0 13 0;
#X connect 9 0 3 0;
#X connect 10 0 17 1;
#X connect 11 0 0 0;
#X connect 13 0 16 0;
#X connect 15 0 14 0;
#X connect 16 0 5 0;
#X connect 17 0 6 0;
