#N canvas 854 30 794 764 10;
#X obj 113 163 unpack float float;
#X obj 113 117 receive touch;
#X obj 369 74 s touch;
#X obj 50 4 loadbang;
#N canvas 0 0 450 300 (subpatch) 0;
#X array wav_left 129841 float 0;
#X coords 0 1 129840 -1 200 140 1;
#X restore 491 438 graph;
#X msg 30 64 read -resize icke.wav wav_left wav_right;
#N canvas 0 0 450 300 (subpatch) 0;
#X array wav_right 129841 float 0;
#X coords 0 1 129840 -1 200 140 1;
#X restore 492 596 graph;
#X obj 30 134 soundfiler;
#X floatatom 30 189 12 0 0 0 - - -;
#X obj 94 438 *~;
#X obj 31 384 phasor~;
#X obj 11 560 tabread4~ wav_left;
#X obj 131 560 tabread4~ wav_right;
#X obj 108 632 dac~;
#X obj 263 273 hsl 128 15 0 2 0 0 empty empty empty -2 -8 0 10 -262144
-1 -1 6350 1;
#X msg 300 39 1;
#X obj 105 334 *;
#X obj 73 231 expr 44100 / $f1;
#X floatatom 285 342 5 0 0 0 - - -;
#X floatatom 117 387 12 0 0 0 - - -;
#X msg 365 30 0.8 0.8;
#X obj 130 587 *~;
#X obj 101 587 *~;
#X connect 0 0 14 0;
#X connect 0 1 21 1;
#X connect 0 1 22 1;
#X connect 1 0 0 0;
#X connect 3 0 5 0;
#X connect 3 0 15 0;
#X connect 5 0 7 0;
#X connect 7 0 8 0;
#X connect 8 0 9 1;
#X connect 8 0 17 0;
#X connect 9 0 11 0;
#X connect 9 0 12 0;
#X connect 10 0 9 0;
#X connect 11 0 22 0;
#X connect 12 0 21 0;
#X connect 14 0 18 0;
#X connect 14 0 16 0;
#X connect 15 0 14 0;
#X connect 16 0 10 0;
#X connect 16 0 19 0;
#X connect 17 0 16 1;
#X connect 20 0 2 0;
#X connect 21 0 13 1;
#X connect 22 0 13 0;
