#N canvas 806 30 794 764 10;
#X obj 113 163 unpack float float;
#X obj 50 4 loadbang;
#N canvas 0 0 450 300 (subpatch) 0;
#X array wav_left 129841 float 0;
#X coords 0 1 129840 -1 200 140 1;
#X restore 491 438 graph;
#X msg 30 64 read -resize icke.wav wav_left wav_right;
#N canvas 0 0 450 300 (subpatch) 0;
#X array wav_right 129841 float 0;
#X coords 0 1 129840 -1 200 140 1;
#X restore 492 596 graph;
#X obj 30 134 soundfiler;
#X floatatom 30 189 12 0 0 0 - - -;
#X obj 94 438 *~;
#X obj 31 384 phasor~;
#X obj 11 560 tabread4~ wav_left;
#X obj 131 560 tabread4~ wav_right;
#X obj 111 737 dac~;
#X obj 263 273 hsl 128 15 0 2 0 0 empty empty empty -2 -8 0 10 -262144
-1 -1 5080 1;
#X msg 300 39 1;
#X obj 105 334 *;
#X obj 73 231 expr 44100 / $f1;
#X floatatom 285 342 5 0 0 0 - - -;
#X floatatom 117 387 12 0 0 0 - - -;
#X msg 365 30 0.8 0.8;
#X obj 130 587 *~;
#X obj 101 587 *~;
#X obj 113 117 receive change;
#X obj 369 74 s change;
#X obj 432 72 s change;
#X obj 297 372 pack;
#X obj 262 400 line;
#X floatatom 256 437 5 0 0 0 - - -;
#X msg 337 341 250;
#X obj 190 324 pack;
#X msg 220 283 250;
#X obj 171 447 line;
#X msg 428 29 1.2 0.3;
#X connect 0 0 12 0;
#X connect 0 1 28 0;
#X connect 1 0 3 0;
#X connect 1 0 13 0;
#X connect 1 0 27 0;
#X connect 1 0 29 0;
#X connect 3 0 5 0;
#X connect 5 0 6 0;
#X connect 6 0 7 1;
#X connect 6 0 15 0;
#X connect 7 0 9 0;
#X connect 7 0 10 0;
#X connect 8 0 7 0;
#X connect 9 0 20 0;
#X connect 10 0 19 0;
#X connect 12 0 16 0;
#X connect 13 0 12 0;
#X connect 14 0 8 0;
#X connect 14 0 17 0;
#X connect 15 0 14 1;
#X connect 16 0 24 0;
#X connect 18 0 22 0;
#X connect 19 0 11 1;
#X connect 20 0 11 0;
#X connect 21 0 0 0;
#X connect 24 0 25 0;
#X connect 25 0 26 0;
#X connect 26 0 14 0;
#X connect 27 0 24 1;
#X connect 28 0 30 0;
#X connect 29 0 28 1;
#X connect 30 0 20 1;
#X connect 30 0 19 1;
#X connect 31 0 23 0;
