#N canvas 0 0 450 300 10;
#X obj 55 43 inlet trigger;
#X obj 146 44 inlet max;
#X obj 55 92 f;
#X obj 161 112 random;
#X obj 212 44 inlet step_size;
#X obj 132 176 +;
#X obj 131 222 clip;
#X obj 128 76 * -1;
#X obj 131 258 outlet;
#X obj 264 149 random 2;
#X obj 265 179 moses 1;
#X obj 265 122 metro 10;
#X msg 265 210 -1;
#X msg 303 209 1;
#X obj 55 69 t b b b;
#X obj 162 146 *;
#X connect 0 0 14 0;
#X connect 1 0 7 0;
#X connect 1 0 6 2;
#X connect 2 0 5 0;
#X connect 3 0 15 0;
#X connect 4 0 3 1;
#X connect 5 0 6 0;
#X connect 6 0 8 0;
#X connect 6 0 2 1;
#X connect 7 0 6 1;
#X connect 9 0 10 0;
#X connect 10 0 12 0;
#X connect 10 1 13 0;
#X connect 11 0 9 0;
#X connect 12 0 15 1;
#X connect 13 0 15 1;
#X connect 14 0 2 0;
#X connect 14 1 3 0;
#X connect 14 2 11 0;
#X connect 15 0 5 1;
