#N canvas 1030 139 605 568 10;
#X obj 52 118 r y;
#X obj 52 141 t b b f;
#X obj 52 164 f;
#X obj 80 164 +;
#X obj 52 209 int;
#X floatatom 52 187 5 0 0 0 - - -;
#X floatatom 52 233 5 0 0 0 - - -;
#X obj 236 14 loadbang;
#X msg 23 118 60;
#X obj 280 79 r x;
#X obj 280 100 moses;
#X obj 256 122 t b b f;
#X obj 256 147 f;
#X obj 280 147 +;
#X obj 308 122 t b b f;
#X obj 308 147 f;
#X obj 332 147 +;
#X msg 223 147 -10;
#X msg 360 147 10;
#X obj 256 171 /;
#X obj 256 194 wrap;
#X obj 256 217 *;
#X floatatom 256 241 5 0 0 0 - - -;
#X floatatom 256 288 5 0 0 0 - - -;
#X obj 256 265 >;
#X obj 308 171 /;
#X obj 308 194 wrap;
#X obj 308 217 *;
#X floatatom 308 241 5 0 0 0 - - -;
#X floatatom 308 288 5 0 0 0 - - -;
#X obj 308 265 <;
#X obj 256 311 sel 1;
#X obj 308 311 sel 1;
#X obj 258 361 bng 15 250 50 0 empty empty empty 17 7 0 10 -262144
-1 -1;
#X obj 316 365 bng 15 250 50 0 empty empty empty 17 7 0 10 -262144
-1 -1;
#X connect 0 0 1 0;
#X connect 1 0 2 0;
#X connect 1 1 3 0;
#X connect 1 2 3 1;
#X connect 2 0 3 0;
#X connect 2 0 5 0;
#X connect 3 0 2 1;
#X connect 4 0 6 0;
#X connect 5 0 4 0;
#X connect 7 0 8 0;
#X connect 7 0 17 0;
#X connect 7 0 18 0;
#X connect 8 0 2 0;
#X connect 9 0 10 0;
#X connect 10 0 11 0;
#X connect 10 1 14 0;
#X connect 11 0 12 0;
#X connect 11 1 13 0;
#X connect 11 2 13 1;
#X connect 12 0 13 0;
#X connect 12 0 19 0;
#X connect 13 0 12 1;
#X connect 14 0 15 0;
#X connect 14 1 16 0;
#X connect 14 2 16 1;
#X connect 15 0 16 0;
#X connect 15 0 25 0;
#X connect 16 0 15 1;
#X connect 17 0 19 1;
#X connect 17 0 21 1;
#X connect 18 0 25 1;
#X connect 18 0 27 1;
#X connect 19 0 20 0;
#X connect 20 0 21 0;
#X connect 21 0 22 0;
#X connect 22 0 24 0;
#X connect 22 0 24 1;
#X connect 23 0 31 0;
#X connect 24 0 23 0;
#X connect 25 0 26 0;
#X connect 26 0 27 0;
#X connect 27 0 28 0;
#X connect 28 0 30 0;
#X connect 28 0 30 1;
#X connect 29 0 32 0;
#X connect 30 0 29 0;
#X connect 31 0 33 0;
#X connect 32 0 34 0;
