#N canvas 840 0 824 962 10;
#X obj 73 38 mtof;
#X obj 126 67 vline~;
#X obj 93 163 *~;
#X obj 94 196 outlet~;
#X obj 70 -52 inlet;
#X obj 71 -26 t b f;
#X obj 72 68 phasor~;
#X msg 126 38 0 \, 0.5 60 0 \, 0 100 100;
#X obj 76 102 *~ 2;
#X obj 77 129 -~ 1;
#X connect 0 0 6 0;
#X connect 1 0 2 1;
#X connect 2 0 3 0;
#X connect 4 0 5 0;
#X connect 5 0 7 0;
#X connect 5 1 0 0;
#X connect 6 0 8 0;
#X connect 7 0 1 0;
#X connect 8 0 9 0;
#X connect 9 0 2 0;
