#N canvas 840 0 824 962 10;
#X obj 52 118 r y;
#X obj 52 141 t b b f;
#X obj 52 163 f;
#X obj 52 228 int;
#X floatatom 52 206 5 0 0 0 - - -;
#X obj 236 14 loadbang;
#X msg 23 118 60;
#X obj 280 79 r x;
#X obj 280 100 moses;
#X obj 256 122 t b b f;
#X obj 256 147 f;
#X obj 280 147 +;
#X obj 308 122 t b b f;
#X obj 308 147 f;
#X obj 332 147 +;
#X msg 223 147 -10;
#X msg 360 147 10;
#X obj 256 171 /;
#X obj 256 194 wrap;
#X obj 256 217 *;
#X floatatom 256 241 5 0 0 0 - - -;
#X floatatom 256 288 5 0 0 0 - - -;
#X obj 256 265 >;
#X obj 308 171 /;
#X obj 308 194 wrap;
#X obj 308 217 *;
#X floatatom 308 241 5 0 0 0 - - -;
#X floatatom 308 288 5 0 0 0 - - -;
#X obj 308 265 <;
#X obj 256 311 sel 1;
#X obj 308 311 sel 1;
#X obj 256 335 bng 15 250 50 0 empty empty empty 17 7 0 10 -262144
-1 -1;
#X obj 308 335 bng 15 250 50 0 empty empty empty 17 7 0 10 -262144
-1 -1;
#X floatatom 52 248 5 0 0 0 - - -;
#X obj 191 506 f;
#X obj 222 506 + 1;
#X obj 191 529 mod 4;
#X obj 158 583 route 0 1 2 3;
#X obj 174 558 pack f f;
#X obj 175 710 simplereverb;
#X obj 76 163 +;
#X obj 76 185 clip 36 84;
#X obj 59 624 velocity_synth1;
#X obj 132 647 velocity_synth1;
#X obj 186 626 velocity_synth1;
#X obj 243 648 velocity_synth1;
#X obj 286 774 outlet~;
#X obj 355 775 outlet~;
#X obj 320 458 string;
#X connect 0 0 1 0;
#X connect 1 0 2 0;
#X connect 1 1 40 0;
#X connect 1 2 40 1;
#X connect 2 0 4 0;
#X connect 2 0 40 0;
#X connect 3 0 33 0;
#X connect 4 0 3 0;
#X connect 5 0 6 0;
#X connect 5 0 15 0;
#X connect 5 0 16 0;
#X connect 6 0 2 0;
#X connect 7 0 8 0;
#X connect 8 0 9 0;
#X connect 8 1 12 0;
#X connect 9 0 10 0;
#X connect 9 1 11 0;
#X connect 9 2 11 1;
#X connect 10 0 11 0;
#X connect 10 0 17 0;
#X connect 11 0 10 1;
#X connect 12 0 13 0;
#X connect 12 1 14 0;
#X connect 12 2 14 1;
#X connect 13 0 14 0;
#X connect 13 0 23 0;
#X connect 14 0 13 1;
#X connect 15 0 17 1;
#X connect 15 0 19 1;
#X connect 16 0 23 1;
#X connect 16 0 25 1;
#X connect 17 0 18 0;
#X connect 18 0 19 0;
#X connect 19 0 20 0;
#X connect 20 0 22 0;
#X connect 20 0 22 1;
#X connect 21 0 29 0;
#X connect 22 0 21 0;
#X connect 23 0 24 0;
#X connect 24 0 25 0;
#X connect 25 0 26 0;
#X connect 26 0 28 0;
#X connect 26 0 28 1;
#X connect 27 0 30 0;
#X connect 28 0 27 0;
#X connect 29 0 31 0;
#X connect 30 0 32 0;
#X connect 31 0 34 0;
#X connect 32 0 48 0;
#X connect 33 0 38 1;
#X connect 33 0 48 1;
#X connect 34 0 35 0;
#X connect 34 0 36 0;
#X connect 35 0 34 1;
#X connect 36 0 38 0;
#X connect 37 0 42 0;
#X connect 37 1 43 0;
#X connect 37 2 44 0;
#X connect 37 3 45 0;
#X connect 38 0 37 0;
#X connect 39 0 46 0;
#X connect 39 1 47 0;
#X connect 40 0 41 0;
#X connect 41 0 2 1;
#X connect 42 0 39 0;
#X connect 43 0 39 0;
#X connect 44 0 39 0;
#X connect 45 0 39 0;
#X connect 48 0 46 0;
#X connect 48 0 47 0;
