#N canvas 636 42 824 962 10;
#X obj 52 118 r y;
#X obj 52 141 t b b f;
#X obj 52 164 f;
#X obj 80 164 +;
#X obj 52 209 int;
#X floatatom 52 187 5 0 0 0 - - -;
#X obj 236 14 loadbang;
#X msg 23 118 60;
#X obj 280 79 r x;
#X obj 280 100 moses;
#X obj 256 122 t b b f;
#X obj 256 147 f;
#X obj 280 147 +;
#X obj 308 122 t b b f;
#X obj 308 147 f;
#X obj 332 147 +;
#X msg 223 147 -10;
#X msg 360 147 10;
#X obj 256 171 /;
#X obj 256 194 wrap;
#X obj 256 217 *;
#X floatatom 256 241 5 0 0 0 - - -;
#X floatatom 256 288 5 0 0 0 - - -;
#X obj 256 265 >;
#X obj 308 171 /;
#X obj 308 194 wrap;
#X obj 308 217 *;
#X floatatom 308 241 5 0 0 0 - - -;
#X floatatom 308 288 5 0 0 0 - - -;
#X obj 308 265 <;
#X obj 256 311 sel 1;
#X obj 308 311 sel 1;
#X obj 258 361 bng 15 250 50 0 empty empty empty 17 7 0 10 -262144
-1 -1;
#X obj 316 365 bng 15 250 50 0 empty empty empty 17 7 0 10 -262144
-1 -1;
#X obj 52 235 clip 20 100;
#X floatatom 52 261 5 0 0 0 - - -;
#X obj 305 767 dac~;
#X text 335 174 Move this logic out into an abstraction or subpatch
;
#X obj 191 506 f;
#X obj 222 506 + 1;
#X obj 191 529 mod 4;
#N canvas 1025 201 450 297 synth~ 0;
#X obj 63 28 mtof;
#X obj 62 58 osc~;
#X msg 116 28 0 \, 1 60 0 \, 0 100 100;
#X obj 116 57 vline~;
#X obj 88 102 *~;
#X obj 89 135 outlet~;
#X obj 60 -62 inlet;
#X obj 61 -36 t b f;
#X connect 0 0 1 0;
#X connect 1 0 4 0;
#X connect 2 0 3 0;
#X connect 3 0 4 1;
#X connect 4 0 5 0;
#X connect 6 0 7 0;
#X connect 7 0 2 0;
#X connect 7 1 0 0;
#X restore 97 625 pd synth~;
#X obj 158 583 route 0 1 2 3;
#N canvas 1025 201 450 297 synth~ 0;
#X obj 63 28 mtof;
#X obj 62 58 osc~;
#X msg 116 28 0 \, 1 60 0 \, 0 100 100;
#X obj 116 57 vline~;
#X obj 88 102 *~;
#X obj 89 135 outlet~;
#X obj 60 -62 inlet;
#X obj 61 -36 t b f;
#X connect 0 0 1 0;
#X connect 1 0 4 0;
#X connect 2 0 3 0;
#X connect 3 0 4 1;
#X connect 4 0 5 0;
#X connect 6 0 7 0;
#X connect 7 0 2 0;
#X connect 7 1 0 0;
#X restore 162 627 pd synth~;
#N canvas 1025 201 450 297 synth~ 0;
#X obj 63 28 mtof;
#X obj 62 58 osc~;
#X msg 116 28 0 \, 1 60 0 \, 0 100 100;
#X obj 116 57 vline~;
#X obj 88 102 *~;
#X obj 89 135 outlet~;
#X obj 60 -62 inlet;
#X obj 61 -36 t b f;
#X connect 0 0 1 0;
#X connect 1 0 4 0;
#X connect 2 0 3 0;
#X connect 3 0 4 1;
#X connect 4 0 5 0;
#X connect 6 0 7 0;
#X connect 7 0 2 0;
#X connect 7 1 0 0;
#X restore 227 623 pd synth~;
#N canvas 1037 498 450 297 synth~ 0;
#X obj 63 28 mtof;
#X obj 62 58 osc~;
#X msg 116 28 0 \, 1 60 0 \, 0 100 100;
#X obj 116 57 vline~;
#X obj 88 102 *~;
#X obj 89 135 outlet~;
#X obj 60 -62 inlet;
#X obj 61 -36 t b f;
#X connect 0 0 1 0;
#X connect 1 0 4 0;
#X connect 2 0 3 0;
#X connect 3 0 4 1;
#X connect 4 0 5 0;
#X connect 6 0 7 0;
#X connect 7 0 2 0;
#X connect 7 1 0 0;
#X restore 293 624 pd synth~;
#X obj 174 558 pack f f;
#X text 237 487 Make another one for the positives.;
#X obj 476 512 f;
#X obj 507 512 + 1;
#X obj 476 535 mod 4;
#X obj 443 589 route 0 1 2 3;
#X obj 459 564 pack f f;
#X text 522 493 Make another one for the positives.;
#X text 580 607;
#X text 245 579 Make these synths more exciting;
#N canvas 582 239 450 297 synth2~ 0;
#X obj 63 28 mtof;
#X msg 116 28 0 \, 1 60 0 \, 0 100 100;
#X obj 116 57 vline~;
#X obj 88 102 *~;
#X obj 89 135 outlet~;
#X obj 60 -62 inlet;
#X obj 61 -36 t b f;
#X obj 62 58 phasor~;
#X connect 0 0 7 0;
#X connect 1 0 2 0;
#X connect 2 0 3 1;
#X connect 3 0 4 0;
#X connect 5 0 6 0;
#X connect 6 0 1 0;
#X connect 6 1 0 0;
#X connect 7 0 3 0;
#X restore 382 631 pd synth2~;
#N canvas 582 239 450 297 synth2~ 0;
#X obj 63 28 mtof;
#X msg 116 28 0 \, 1 60 0 \, 0 100 100;
#X obj 116 57 vline~;
#X obj 88 102 *~;
#X obj 89 135 outlet~;
#X obj 60 -62 inlet;
#X obj 61 -36 t b f;
#X obj 62 58 phasor~;
#X connect 0 0 7 0;
#X connect 1 0 2 0;
#X connect 2 0 3 1;
#X connect 3 0 4 0;
#X connect 5 0 6 0;
#X connect 6 0 1 0;
#X connect 6 1 0 0;
#X connect 7 0 3 0;
#X restore 455 630 pd synth2~;
#N canvas 582 239 450 297 synth2~ 0;
#X obj 63 28 mtof;
#X msg 116 28 0 \, 1 60 0 \, 0 100 100;
#X obj 116 57 vline~;
#X obj 88 102 *~;
#X obj 89 135 outlet~;
#X obj 60 -62 inlet;
#X obj 61 -36 t b f;
#X obj 62 58 phasor~;
#X connect 0 0 7 0;
#X connect 1 0 2 0;
#X connect 2 0 3 1;
#X connect 3 0 4 0;
#X connect 5 0 6 0;
#X connect 6 0 1 0;
#X connect 6 1 0 0;
#X connect 7 0 3 0;
#X restore 531 631 pd synth2~;
#N canvas 582 239 450 297 synth2~ 0;
#X obj 63 28 mtof;
#X msg 116 28 0 \, 1 60 0 \, 0 100 100;
#X obj 116 57 vline~;
#X obj 88 102 *~;
#X obj 89 135 outlet~;
#X obj 60 -62 inlet;
#X obj 61 -36 t b f;
#X obj 62 58 phasor~;
#X connect 0 0 7 0;
#X connect 1 0 2 0;
#X connect 2 0 3 1;
#X connect 3 0 4 0;
#X connect 5 0 6 0;
#X connect 6 0 1 0;
#X connect 6 1 0 0;
#X connect 7 0 3 0;
#X restore 605 630 pd synth2~;
#X connect 0 0 1 0;
#X connect 1 0 2 0;
#X connect 1 1 3 0;
#X connect 1 2 3 1;
#X connect 2 0 3 0;
#X connect 2 0 5 0;
#X connect 3 0 2 1;
#X connect 4 0 34 0;
#X connect 5 0 4 0;
#X connect 6 0 7 0;
#X connect 6 0 16 0;
#X connect 6 0 17 0;
#X connect 7 0 2 0;
#X connect 8 0 9 0;
#X connect 9 0 10 0;
#X connect 9 1 13 0;
#X connect 10 0 11 0;
#X connect 10 1 12 0;
#X connect 10 2 12 1;
#X connect 11 0 12 0;
#X connect 11 0 18 0;
#X connect 12 0 11 1;
#X connect 13 0 14 0;
#X connect 13 1 15 0;
#X connect 13 2 15 1;
#X connect 14 0 15 0;
#X connect 14 0 24 0;
#X connect 15 0 14 1;
#X connect 16 0 18 1;
#X connect 16 0 20 1;
#X connect 17 0 24 1;
#X connect 17 0 26 1;
#X connect 18 0 19 0;
#X connect 19 0 20 0;
#X connect 20 0 21 0;
#X connect 21 0 23 0;
#X connect 21 0 23 1;
#X connect 22 0 30 0;
#X connect 23 0 22 0;
#X connect 24 0 25 0;
#X connect 25 0 26 0;
#X connect 26 0 27 0;
#X connect 27 0 29 0;
#X connect 27 0 29 1;
#X connect 28 0 31 0;
#X connect 29 0 28 0;
#X connect 30 0 32 0;
#X connect 31 0 33 0;
#X connect 32 0 38 0;
#X connect 33 0 48 0;
#X connect 34 0 35 0;
#X connect 35 0 46 1;
#X connect 35 0 52 1;
#X connect 38 0 39 0;
#X connect 38 0 40 0;
#X connect 39 0 38 1;
#X connect 40 0 46 0;
#X connect 41 0 36 0;
#X connect 41 0 36 1;
#X connect 42 0 41 0;
#X connect 42 1 43 0;
#X connect 42 2 44 0;
#X connect 42 3 45 0;
#X connect 43 0 36 0;
#X connect 43 0 36 1;
#X connect 44 0 36 0;
#X connect 44 0 36 1;
#X connect 45 0 36 0;
#X connect 45 0 36 1;
#X connect 46 0 42 0;
#X connect 48 0 49 0;
#X connect 48 0 50 0;
#X connect 49 0 48 1;
#X connect 50 0 52 0;
#X connect 51 0 56 0;
#X connect 51 1 57 0;
#X connect 51 2 58 0;
#X connect 51 3 59 0;
#X connect 52 0 51 0;
#X connect 56 0 36 0;
#X connect 56 0 36 1;
#X connect 57 0 36 0;
#X connect 57 0 36 1;
#X connect 58 0 36 0;
#X connect 58 0 36 1;
#X connect 59 0 36 0;
#X connect 59 0 36 1;
