#N canvas 152 361 721 406 10;
#X obj 41 34 inlet val;
#X obj 173 77 bng 15 250 50 0 empty empty empty 17 7 0 10 -262144 -1
-1;
#X obj 67 168 outlet;
#X obj 481 36 inlet type;
#X obj 481 60 t b f;
#X obj 203 83 f \$2;
#X obj 112 83 f \$1;
#X obj 172 2 loadbang;
#X obj 112 34 inlet old_min;
#X obj 203 34 inlet old_max;
#X obj 294 36 inlet new_min;
#X obj 385 36 inlet new_max;
#X obj 291 82 f \$3;
#X obj 388 81 f \$4;
#X obj 482 114 f \$5;
#X obj 67 128 expr (((pow($f1 \, $i6) - pow($f2 \, $i6)) * ($f5 - $f4))
/ (pow($f3 \, $i6) - pow($f2 \, $i6))) + $f4;
#X connect 0 0 15 0;
#X connect 1 0 15 0;
#X connect 3 0 4 0;
#X connect 4 0 14 0;
#X connect 4 1 14 1;
#X connect 5 0 15 2;
#X connect 6 0 15 1;
#X connect 7 0 6 0;
#X connect 7 0 5 0;
#X connect 7 0 14 0;
#X connect 7 0 12 0;
#X connect 7 0 13 0;
#X connect 8 0 1 0;
#X connect 8 0 6 0;
#X connect 9 0 1 0;
#X connect 9 0 5 0;
#X connect 10 0 12 0;
#X connect 10 0 1 0;
#X connect 11 0 13 0;
#X connect 11 0 1 0;
#X connect 12 0 15 3;
#X connect 13 0 15 4;
#X connect 14 0 15 5;
#X connect 15 0 2 0;
