#N canvas 875 244 300 607 10;
#X obj 5 146 inlet pitch;
#X obj 161 323 inlet feature_count;
#X text 5 126 base pitch;
#X text 81 372 gain amount;
#X text 124 78 detune amount;
#X obj 67 468 *~;
#X obj 115 116 pack f 500;
#X obj 115 138 line~;
#X msg 115 -2 4;
#X msg 98 -29 20;
#X obj 53 -22 tgl 15 0 empty empty empty 17 7 0 10 -262144 -1 -1 1
1;
#X obj 98 -51 loadbang;
#X obj 53 -2 metro 10;
#X obj 82 145 *;
#X obj 82 167 +~;
#X obj 67 194 +~;
#X obj 67 216 osc~;
#X text 161 303 amplitude mod amount;
#X obj 67 238 *~ 128;
#X obj 67 260 +~ 129;
#X obj 67 282 tabread4~ tanh-xfer;
#X obj 82 20 vdrunk;
#X obj 81 414 pack f 500;
#X obj 81 436 line~;
#X obj 67 512 throw~ zone_synth_bus;
#X obj 161 345 pack f 500;
#X obj 161 367 line~;
#X obj 161 389 *~ 4;
#X obj 161 411 osc~;
#X obj 161 455 +~ 1;
#X obj 67 490 *~;
#X obj 161 433 *~ 0.5;
#X text 96 40 pitchbend amount;
#X obj 97 60 inlet hue;
#X obj 81 391 inlet value;
#X obj 115 94 inlet saturation;
#X connect 0 0 15 0;
#X connect 1 0 25 0;
#X connect 5 0 30 0;
#X connect 6 0 7 0;
#X connect 7 0 14 0;
#X connect 8 0 21 2;
#X connect 9 0 21 1;
#X connect 10 0 12 0;
#X connect 11 0 10 0;
#X connect 11 0 9 0;
#X connect 11 0 8 0;
#X connect 12 0 21 0;
#X connect 13 0 14 1;
#X connect 14 0 15 1;
#X connect 15 0 16 0;
#X connect 16 0 18 0;
#X connect 18 0 19 0;
#X connect 19 0 20 0;
#X connect 20 0 5 0;
#X connect 21 0 13 0;
#X connect 22 0 23 0;
#X connect 23 0 5 1;
#X connect 25 0 26 0;
#X connect 26 0 27 0;
#X connect 27 0 28 0;
#X connect 28 0 31 0;
#X connect 29 0 30 1;
#X connect 30 0 24 0;
#X connect 31 0 29 0;
#X connect 33 0 13 1;
#X connect 34 0 22 0;
#X connect 35 0 6 0;
