#N canvas 715 106 726 537 10;
#X obj 510 -163 loadbang;
#X obj 523 126 simplereverb;
#X obj 604 143 tabwrite~ wavout;
#X obj 604 121 metro 100;
#X obj 604 101 tgl 15 0 empty empty empty 17 7 0 10 -262144 -1 -1 0
1;
#N canvas 0 0 450 300 (subpatch) 0;
#X array wavout 100 float 0;
#X coords 0 1 99 -1 200 140 1;
#X restore 510 -328 graph;
#N canvas 0 0 959 669 tanh_tabwrite 0;
#X obj 498 115 t b b;
#X obj 504 160 until;
#X msg 497 137 258;
#X msg 528 137 0;
#X obj 497 184 f;
#X obj 530 184 + 1;
#X obj 497 210 t f f;
#X obj 500 285 * 2;
#X obj 492 405 /;
#X obj 495 346 t f f;
#N canvas 0 0 450 300 (subpatch) 0;
#X array tanh-xfer 258 float 2;
#X coords 0 1 258 -1 200 140 1;
#X restore 624 331 graph;
#X obj 498 238 / 129;
#X obj 499 261 - 1;
#X obj 495 505 tabwrite tanh-xfer;
#X obj 519 372 + 1;
#X obj 477 374 - 1;
#X obj 500 310 exp;
#X obj 413 293 exp;
#X obj 409 385 /;
#X obj 406 322 t f f;
#X obj 385 355 - 1;
#X obj 434 356 + 1;
#X obj 409 405 * -1;
#X msg 413 269 -2;
#X obj 483 450 /;
#X obj 461 73 t b b;
#X obj 460 44 inlet;
#X obj 399 45 bng 15 250 50 0 empty empty empty 17 7 0 10 -262144 -1
-1;
#X obj 445 483 *;
#X obj 429 508 *;
#X connect 0 0 2 0;
#X connect 0 1 3 0;
#X connect 1 0 4 0;
#X connect 2 0 1 0;
#X connect 3 0 4 1;
#X connect 4 0 5 0;
#X connect 4 0 6 0;
#X connect 5 0 4 1;
#X connect 6 0 11 0;
#X connect 6 1 13 1;
#X connect 7 0 16 0;
#X connect 8 0 24 0;
#X connect 9 0 15 0;
#X connect 9 1 14 0;
#X connect 11 0 12 0;
#X connect 12 0 7 0;
#X connect 14 0 8 1;
#X connect 15 0 8 0;
#X connect 16 0 9 0;
#X connect 17 0 19 0;
#X connect 18 0 22 0;
#X connect 19 0 20 0;
#X connect 19 1 21 0;
#X connect 20 0 18 0;
#X connect 21 0 18 1;
#X connect 22 0 24 1;
#X connect 23 0 17 0;
#X connect 24 0 28 0;
#X connect 24 0 28 1;
#X connect 24 0 29 0;
#X connect 25 0 0 0;
#X connect 25 1 23 0;
#X connect 26 0 25 0;
#X connect 27 0 25 0;
#X connect 28 0 29 1;
#X connect 29 0 13 0;
#X restore 520 -136 pd tanh_tabwrite;
#X obj 510 -4 catch~ zone_synth_bus;
#X obj 511 18 /~ 32;
#N canvas 987 442 450 630 val_routing 0;
#X obj 26 15 r zone_val;
#X obj 26 36 unpack f f f f f f f f f f f f f f f f;
#X obj 26 59 s val1;
#X obj 36 79 s val2;
#X obj 46 99 s val3;
#X obj 56 119 s val4;
#X obj 66 139 s val5;
#X obj 86 179 s val7;
#X obj 76 159 s val6;
#X obj 96 199 s val8;
#X obj 106 219 s val9;
#X obj 116 239 s val10;
#X obj 126 259 s val11;
#X obj 136 279 s val12;
#X obj 146 299 s val13;
#X obj 156 319 s val14;
#X obj 166 339 s val15;
#X obj 176 359 s val16;
#X connect 0 0 1 0;
#X connect 1 0 2 0;
#X connect 1 1 3 0;
#X connect 1 2 4 0;
#X connect 1 3 5 0;
#X connect 1 4 6 0;
#X connect 1 5 8 0;
#X connect 1 6 7 0;
#X connect 1 7 9 0;
#X connect 1 8 10 0;
#X connect 1 9 11 0;
#X connect 1 10 12 0;
#X connect 1 11 13 0;
#X connect 1 12 14 0;
#X connect 1 13 15 0;
#X connect 1 14 16 0;
#X connect 1 15 17 0;
#X restore 510 -92 pd val_routing;
#N canvas 552 113 467 428 hue_routing 0;
#X obj 46 35 r zone_hue;
#X obj 46 56 unpack f f f f f f f f f f f f f f f f;
#X obj 46 79 s hue1;
#X obj 56 99 s hue2;
#X obj 66 119 s hue3;
#X obj 76 139 s hue4;
#X obj 86 159 s hue5;
#X obj 106 199 s hue7;
#X obj 96 179 s hue6;
#X obj 116 219 s hue8;
#X obj 126 239 s hue9;
#X obj 136 259 s hue10;
#X obj 146 279 s hue11;
#X obj 156 299 s hue12;
#X obj 166 319 s hue13;
#X obj 176 339 s hue14;
#X obj 186 359 s hue15;
#X obj 196 379 s hue16;
#X connect 0 0 1 0;
#X connect 1 0 2 0;
#X connect 1 1 3 0;
#X connect 1 2 4 0;
#X connect 1 3 5 0;
#X connect 1 4 6 0;
#X connect 1 5 8 0;
#X connect 1 6 7 0;
#X connect 1 7 9 0;
#X connect 1 8 10 0;
#X connect 1 9 11 0;
#X connect 1 10 12 0;
#X connect 1 11 13 0;
#X connect 1 12 14 0;
#X connect 1 13 15 0;
#X connect 1 14 16 0;
#X connect 1 15 17 0;
#X restore 510 -70 pd hue_routing;
#N canvas 525 156 467 430 sat_routing 0;
#X obj 46 35 r zone_sat;
#X obj 46 56 unpack f f f f f f f f f f f f f f f f;
#X obj 46 79 s sat1;
#X obj 56 99 s sat2;
#X obj 66 119 s sat3;
#X obj 76 139 s sat4;
#X obj 86 159 s sat5;
#X obj 106 199 s sat7;
#X obj 96 179 s sat6;
#X obj 116 219 s sat8;
#X obj 126 239 s sat9;
#X obj 136 259 s sat10;
#X obj 146 279 s sat11;
#X obj 156 299 s sat12;
#X obj 166 319 s sat13;
#X obj 176 339 s sat14;
#X obj 186 359 s sat15;
#X obj 196 379 s sat16;
#X connect 0 0 1 0;
#X connect 1 0 2 0;
#X connect 1 1 3 0;
#X connect 1 2 4 0;
#X connect 1 3 5 0;
#X connect 1 4 6 0;
#X connect 1 5 8 0;
#X connect 1 6 7 0;
#X connect 1 7 9 0;
#X connect 1 8 10 0;
#X connect 1 9 11 0;
#X connect 1 10 12 0;
#X connect 1 11 13 0;
#X connect 1 12 14 0;
#X connect 1 13 15 0;
#X connect 1 14 16 0;
#X connect 1 15 17 0;
#X restore 510 -48 pd sat_routing;
#N canvas 536 188 467 448 feature_routing 0;
#X obj 46 35 r zone_feature;
#X obj 46 56 unpack f f f f f f f f f f f f f f f f;
#X obj 46 79 s feature1;
#X obj 56 99 s feature2;
#X obj 66 119 s feature3;
#X obj 76 139 s feature4;
#X obj 86 159 s feature5;
#X obj 106 199 s feature7;
#X obj 96 179 s feature6;
#X obj 116 219 s feature8;
#X obj 126 239 s feature9;
#X obj 136 259 s feature10;
#X obj 146 279 s feature11;
#X obj 156 299 s feature12;
#X obj 166 319 s feature13;
#X obj 176 339 s feature14;
#X obj 186 359 s feature15;
#X obj 196 379 s feature16;
#X connect 0 0 1 0;
#X connect 1 0 2 0;
#X connect 1 1 3 0;
#X connect 1 2 4 0;
#X connect 1 3 5 0;
#X connect 1 4 6 0;
#X connect 1 5 8 0;
#X connect 1 6 7 0;
#X connect 1 7 9 0;
#X connect 1 8 10 0;
#X connect 1 9 11 0;
#X connect 1 10 12 0;
#X connect 1 11 13 0;
#X connect 1 12 14 0;
#X connect 1 13 15 0;
#X connect 1 14 16 0;
#X connect 1 15 17 0;
#X restore 510 -26 pd feature_routing;
#N canvas 508 436 467 445 pitch_routing 0;
#X obj 46 56 unpack f f f f f f f f f f f f f f f f;
#X obj 46 79 s pitch1;
#X obj 56 99 s pitch2;
#X obj 66 119 s pitch3;
#X obj 76 139 s pitch4;
#X obj 86 159 s pitch5;
#X obj 106 199 s pitch7;
#X obj 96 179 s pitch6;
#X obj 116 219 s pitch8;
#X obj 126 239 s pitch9;
#X obj 136 259 s pitch10;
#X obj 146 279 s pitch11;
#X obj 156 299 s pitch12;
#X obj 166 319 s pitch13;
#X obj 176 339 s pitch14;
#X obj 186 359 s pitch15;
#X obj 196 379 s pitch16;
#X msg 46 22 130.81 164.81 196 233.08 261.63 329.36 392 466.16 523.25
659.26 783.99 932.33 1046.5 1318.5 1568 1867.7;
#X obj 46 -1 inlet trigger;
#X connect 0 0 1 0;
#X connect 0 1 2 0;
#X connect 0 2 3 0;
#X connect 0 3 4 0;
#X connect 0 4 5 0;
#X connect 0 5 7 0;
#X connect 0 6 6 0;
#X connect 0 7 8 0;
#X connect 0 8 9 0;
#X connect 0 9 10 0;
#X connect 0 10 11 0;
#X connect 0 11 12 0;
#X connect 0 12 13 0;
#X connect 0 13 14 0;
#X connect 0 14 15 0;
#X connect 0 15 16 0;
#X connect 17 0 0 0;
#X connect 18 0 17 0;
#X restore 510 -114 pd pitch_routing;
#X obj 3 -338 r pitch1;
#X obj 17 -316 r val1;
#X obj 31 -294 r hue1;
#X obj 45 -272 r sat1;
#X obj 60 -250 r feature1;
#X obj 125 -337 r pitch2;
#X obj 139 -315 r val2;
#X obj 153 -293 r hue2;
#X obj 167 -271 r sat2;
#X obj 182 -249 r feature2;
#X obj 245 -337 r pitch3;
#X obj 259 -315 r val3;
#X obj 273 -293 r hue3;
#X obj 287 -271 r sat3;
#X obj 302 -249 r feature3;
#X obj 366 -339 r pitch4;
#X obj 380 -317 r val4;
#X obj 394 -295 r hue4;
#X obj 408 -273 r sat4;
#X obj 423 -251 r feature4;
#X obj 3 -208 r pitch5;
#X obj 17 -186 r val5;
#X obj 31 -164 r hue5;
#X obj 45 -142 r sat5;
#X obj 60 -120 r feature5;
#X obj 125 -207 r pitch6;
#X obj 139 -185 r val6;
#X obj 153 -163 r hue6;
#X obj 167 -141 r sat6;
#X obj 182 -119 r feature6;
#X obj 245 -207 r pitch7;
#X obj 259 -185 r val7;
#X obj 273 -163 r hue7;
#X obj 287 -141 r sat7;
#X obj 302 -119 r feature7;
#X obj 366 -209 r pitch8;
#X obj 380 -187 r val8;
#X obj 394 -165 r hue8;
#X obj 408 -143 r sat8;
#X obj 423 -121 r feature8;
#X obj 3 -78 r pitch9;
#X obj 17 -56 r val9;
#X obj 31 -34 r hue9;
#X obj 45 -12 r sat9;
#X obj 60 10 r feature9;
#X obj 125 -77 r pitch10;
#X obj 139 -55 r val10;
#X obj 153 -33 r hue10;
#X obj 167 -11 r sat10;
#X obj 182 11 r feature10;
#X obj 245 -77 r pitch11;
#X obj 259 -55 r val11;
#X obj 273 -33 r hue11;
#X obj 287 -11 r sat11;
#X obj 302 11 r feature11;
#X obj 366 -79 r pitch12;
#X obj 380 -57 r val12;
#X obj 394 -35 r hue12;
#X obj 408 -13 r sat12;
#X obj 423 9 r feature12;
#X obj 3 52 r pitch13;
#X obj 17 74 r val13;
#X obj 31 96 r hue13;
#X obj 45 118 r sat13;
#X obj 60 140 r feature13;
#X obj 125 53 r pitch14;
#X obj 139 75 r val14;
#X obj 153 97 r hue14;
#X obj 167 119 r sat14;
#X obj 182 141 r feature14;
#X obj 245 53 r pitch15;
#X obj 259 75 r val15;
#X obj 273 97 r hue15;
#X obj 287 119 r sat15;
#X obj 302 141 r feature15;
#X obj 366 51 r pitch16;
#X obj 380 73 r val16;
#X obj 394 95 r hue16;
#X obj 408 117 r sat16;
#X obj 423 139 r feature16;
#X obj 523 168 outlet~;
#X obj 592 168 outlet~;
#X obj 3 -228 zone_synth;
#X obj 510 58 *~;
#X obj 447 58 tgl 15 0 empty empty empty 17 7 0 10 -262144 -1 -1 0
1;
#X obj 447 36 r zone_go;
#X obj 125 163 zone_synth;
#X obj 125 -227 zone_synth;
#X obj 245 -227 zone_synth;
#X obj 366 -229 zone_synth;
#X obj 3 -98 zone_synth;
#X obj 125 -97 zone_synth;
#X obj 245 -97 zone_synth;
#X obj 366 -99 zone_synth;
#X obj 3 32 zone_synth;
#X obj 125 33 zone_synth;
#X obj 245 33 zone_synth;
#X obj 366 31 zone_synth;
#X obj 3 162 zone_synth;
#X obj 245 163 zone_synth;
#X obj 366 161 zone_synth;
#X connect 0 0 6 0;
#X connect 0 0 13 0;
#X connect 1 0 94 0;
#X connect 1 0 2 0;
#X connect 1 1 95 0;
#X connect 3 0 2 0;
#X connect 4 0 3 0;
#X connect 7 0 8 0;
#X connect 8 0 97 0;
#X connect 14 0 96 0;
#X connect 15 0 96 1;
#X connect 16 0 96 2;
#X connect 17 0 96 3;
#X connect 18 0 96 4;
#X connect 19 0 101 0;
#X connect 20 0 101 1;
#X connect 21 0 101 2;
#X connect 22 0 101 3;
#X connect 23 0 101 4;
#X connect 24 0 102 0;
#X connect 25 0 102 1;
#X connect 26 0 102 2;
#X connect 27 0 102 3;
#X connect 28 0 102 4;
#X connect 29 0 103 0;
#X connect 30 0 103 1;
#X connect 31 0 103 2;
#X connect 32 0 103 3;
#X connect 33 0 103 4;
#X connect 34 0 104 0;
#X connect 35 0 104 1;
#X connect 36 0 104 2;
#X connect 37 0 104 3;
#X connect 38 0 104 4;
#X connect 39 0 105 0;
#X connect 40 0 105 1;
#X connect 41 0 105 2;
#X connect 42 0 105 3;
#X connect 43 0 105 4;
#X connect 44 0 106 0;
#X connect 45 0 106 1;
#X connect 46 0 106 2;
#X connect 47 0 106 3;
#X connect 48 0 106 4;
#X connect 49 0 107 0;
#X connect 50 0 107 1;
#X connect 51 0 107 2;
#X connect 52 0 107 3;
#X connect 53 0 107 4;
#X connect 54 0 108 0;
#X connect 55 0 108 1;
#X connect 56 0 108 2;
#X connect 57 0 108 3;
#X connect 58 0 108 4;
#X connect 59 0 109 0;
#X connect 60 0 109 1;
#X connect 61 0 109 2;
#X connect 62 0 109 3;
#X connect 63 0 109 4;
#X connect 64 0 110 0;
#X connect 65 0 110 1;
#X connect 66 0 110 2;
#X connect 67 0 110 3;
#X connect 68 0 110 4;
#X connect 69 0 111 0;
#X connect 70 0 111 1;
#X connect 71 0 111 2;
#X connect 72 0 111 3;
#X connect 73 0 111 4;
#X connect 74 0 112 0;
#X connect 75 0 112 1;
#X connect 76 0 112 2;
#X connect 77 0 112 3;
#X connect 78 0 112 4;
#X connect 79 0 100 0;
#X connect 80 0 100 1;
#X connect 81 0 100 2;
#X connect 82 0 100 3;
#X connect 83 0 100 4;
#X connect 84 0 113 0;
#X connect 85 0 113 1;
#X connect 86 0 113 2;
#X connect 87 0 113 3;
#X connect 88 0 113 4;
#X connect 89 0 114 0;
#X connect 90 0 114 1;
#X connect 91 0 114 2;
#X connect 92 0 114 3;
#X connect 93 0 114 4;
#X connect 97 0 1 0;
#X connect 98 0 97 1;
#X connect 99 0 98 0;
