#N canvas 250 233 645 607 10;
#X obj 5 146 inlet pitch;
#X obj 289 254 inlet feature_count;
#X text 5 126 base pitch;
#X text 81 351 gain amount;
#X text 124 108 detune amount;
#X obj 67 468 *~;
#X obj 115 166 pack f 500;
#X obj 115 188 line~;
#X msg 115 -2 4;
#X msg 98 -29 20;
#X obj 53 -22 tgl 15 0 empty empty empty 17 7 0 10 -262144 -1 -1 1
1;
#X obj 98 -51 loadbang;
#X obj 53 -2 metro 10;
#X obj 82 145 *;
#X obj 82 167 +~;
#X obj 67 194 +~;
#X obj 67 216 osc~;
#X obj 67 238 *~ 128;
#X obj 67 260 +~ 129;
#X obj 67 334 tabread4~ tanh-xfer;
#X obj 82 20 vdrunk;
#X obj 81 414 pack f 500;
#X obj 81 436 line~;
#X obj 67 512 throw~ zone_synth_bus;
#X obj 289 321 pack f 500;
#X obj 289 343 line~;
#X obj 216 423 osc~;
#X text 96 40 pitchbend amount;
#X obj 97 60 inlet hue;
#X obj 81 370 inlet value;
#X obj 115 124 inlet saturation;
#X obj 115 145 vscale 0 255 -20 20 1;
#X obj 97 86 vscale 0 255 0 4 3;
#X obj 81 392 vscale 0 255 0 1 2;
#X obj 144 239 - 2;
#X obj 144 262 atan;
#X obj 144 285 - 1.24905;
#X obj 144 218 vscale 130.81 1867.7 0 5 1;
#X text 152 189 Scale minimum gain based on base freq;
#X text 152 201 Higher minimum for lower frequencies.;
#X obj 144 306 * -0.1;
#X text 186 269 arctan(3);
#X obj 216 445 *~;
#X obj 216 467 +~;
#X obj 288 396 -~ 1;
#X obj 67 490 *~;
#X obj 217 377 *~ 16;
#X obj 217 400 +~ 1;
#X obj 289 277 min 16;
#X obj 289 304 / 8;
#X text 289 234 amplitude mod amount and freq;
#X connect 0 0 15 0;
#X connect 0 0 37 0;
#X connect 1 0 48 0;
#X connect 5 0 45 0;
#X connect 6 0 7 0;
#X connect 7 0 14 0;
#X connect 8 0 20 2;
#X connect 9 0 20 1;
#X connect 10 0 12 0;
#X connect 11 0 10 0;
#X connect 11 0 9 0;
#X connect 11 0 8 0;
#X connect 12 0 20 0;
#X connect 13 0 14 1;
#X connect 14 0 15 1;
#X connect 15 0 16 0;
#X connect 16 0 17 0;
#X connect 17 0 18 0;
#X connect 18 0 19 0;
#X connect 19 0 5 0;
#X connect 20 0 13 0;
#X connect 21 0 22 0;
#X connect 22 0 5 1;
#X connect 24 0 25 0;
#X connect 25 0 42 1;
#X connect 25 0 44 0;
#X connect 25 0 46 0;
#X connect 26 0 42 0;
#X connect 28 0 32 0;
#X connect 29 0 33 0;
#X connect 30 0 31 0;
#X connect 31 0 6 0;
#X connect 32 0 13 1;
#X connect 33 0 21 0;
#X connect 34 0 35 0;
#X connect 35 0 36 0;
#X connect 36 0 40 0;
#X connect 37 0 34 0;
#X connect 40 0 33 3;
#X connect 42 0 43 0;
#X connect 43 0 45 1;
#X connect 44 0 43 1;
#X connect 45 0 23 0;
#X connect 46 0 47 0;
#X connect 47 0 26 0;
#X connect 48 0 49 0;
#X connect 49 0 24 0;
