#N canvas 0 0 784 1004 10;
#X obj 5 56 inlet pitch;
#X obj 249 394 inlet feature_count;
#X text 5 36 base pitch;
#X text 81 451 gain amount;
#X text 124 198 detune amount;
#X obj 67 618 *~;
#X obj 115 256 pack f 500;
#X obj 115 278 line~;
#X obj 82 327 +~;
#X obj 67 364 +~;
#X obj 67 386 osc~;
#X obj 81 514 pack f 500;
#X obj 81 536 line~;
#X obj 68 735 throw~ zone_synth_bus;
#X obj 249 461 pack f 500;
#X obj 249 483 line~;
#X obj 176 563 osc~;
#X obj 55 105 inlet hue;
#X obj 81 470 inlet value;
#X obj 115 214 inlet saturation;
#X obj 115 235 vscale 0 255 -20 20 1;
#X obj 81 492 vscale 0 255 0 1 2;
#X obj 144 349 - 2;
#X obj 144 372 atan;
#X obj 144 395 - 1.24905;
#X text 152 299 Scale minimum gain based on base freq;
#X text 152 311 Higher minimum for lower frequencies.;
#X obj 144 416 * -0.1;
#X text 173 380 arctan(3);
#X obj 176 585 *~;
#X obj 176 607 +~;
#X obj 248 536 -~ 1;
#X obj 67 640 *~;
#X obj 177 517 *~ 16;
#X obj 177 540 +~ 1;
#X obj 249 444 / 8;
#X text 249 374 amplitude mod amount and freq;
#X obj 144 328 vscale 82.307 1046.5 0 5 1;
#X obj 67 668 *~ 128;
#X obj 67 690 +~ 129;
#X obj 67 714 tabread4~ tanh-xfer;
#X obj 249 417 clip 0 16;
#X obj 55 228 osc~;
#X obj 55 196 *;
#X obj 55 131 vscale 0 255 0 4 1;
#X obj 54 276 *~;
#X obj 69 250 * 0.2;
#X text 54 85 FM Frequency (relative to base freq) amount;
#X connect 0 0 9 0;
#X connect 0 0 37 0;
#X connect 0 0 43 1;
#X connect 0 0 46 0;
#X connect 1 0 41 0;
#X connect 5 0 32 0;
#X connect 6 0 7 0;
#X connect 7 0 8 0;
#X connect 8 0 9 1;
#X connect 9 0 10 0;
#X connect 10 0 5 0;
#X connect 11 0 12 0;
#X connect 12 0 5 1;
#X connect 14 0 15 0;
#X connect 15 0 29 1;
#X connect 15 0 31 0;
#X connect 15 0 33 0;
#X connect 16 0 29 0;
#X connect 17 0 44 0;
#X connect 18 0 21 0;
#X connect 19 0 20 0;
#X connect 20 0 6 0;
#X connect 21 0 11 0;
#X connect 22 0 23 0;
#X connect 23 0 24 0;
#X connect 24 0 27 0;
#X connect 27 0 21 3;
#X connect 29 0 30 0;
#X connect 30 0 32 1;
#X connect 31 0 30 1;
#X connect 32 0 38 0;
#X connect 33 0 34 0;
#X connect 34 0 16 0;
#X connect 35 0 14 0;
#X connect 37 0 22 0;
#X connect 38 0 39 0;
#X connect 39 0 40 0;
#X connect 40 0 13 0;
#X connect 41 0 35 0;
#X connect 42 0 45 0;
#X connect 43 0 42 0;
#X connect 44 0 43 0;
#X connect 45 0 8 1;
#X connect 46 0 45 1;
